<svg xmlns="http://www.w3.org/2000/svg" xmlns:xlink="http://www.w3.org/1999/xlink" width="498" zoomAndPan="magnify" viewBox="0 0 373.5 130.499996" height="174" preserveAspectRatio="xMidYMid meet" version="1.0"><defs><g/><clipPath id="aec581bb02"><rect x="0" width="284" y="0" height="82"/></clipPath></defs><g transform="matrix(1, 0, 0, 1, 41, 23)"><g clip-path="url(#aec581bb02)"><g fill="#1b1b1b" fill-opacity="1"><g transform="translate(1.513007, 63.850429)"><g><path d="M 40.6875 -0.390625 C 39.3125 -0.453125 37.914062 -0.46875 36.5 -0.4375 C 35.09375 -0.40625 33.675781 -0.390625 32.25 -0.390625 C 31.925781 -0.390625 31.671875 -0.945312 31.484375 -2.0625 C 31.304688 -3.1875 31.1875 -4.648438 31.125 -6.453125 C 31.070312 -8.253906 31.046875 -10.203125 31.046875 -12.296875 C 31.046875 -14.398438 31.070312 -16.429688 31.125 -18.390625 C 31.1875 -20.359375 31.226562 -22.054688 31.25 -23.484375 C 31.28125 -24.921875 31.296875 -25.851562 31.296875 -26.28125 C 31.242188 -29.25 30.773438 -31.503906 29.890625 -33.046875 C 29.015625 -34.585938 27.925781 -35.648438 26.625 -36.234375 C 25.332031 -36.816406 24.046875 -37.109375 22.765625 -37.109375 L 22.609375 -37.109375 C 19.585938 -37.109375 17.132812 -36.082031 15.25 -34.03125 C 13.363281 -31.988281 12.367188 -29.320312 12.265625 -26.03125 C 12.210938 -23.914062 12.1875 -21.796875 12.1875 -19.671875 C 12.1875 -17.546875 12.1875 -15.421875 12.1875 -13.296875 C 12.238281 -11.648438 12.382812 -9.832031 12.625 -7.84375 C 12.863281 -5.851562 12.820312 -4.035156 12.5 -2.390625 C 12.289062 -1.171875 11.800781 -0.519531 11.03125 -0.4375 C 10.257812 -0.351562 9.394531 -0.285156 8.4375 -0.234375 C 7.800781 -0.179688 6.960938 -0.113281 5.921875 -0.03125 C 4.890625 0.0390625 3.882812 0 2.90625 -0.15625 C 1.925781 -0.3125 1.195312 -0.710938 0.71875 -1.359375 C 0.132812 -2.203125 -0.078125 -3.21875 0.078125 -4.40625 C 0.234375 -5.601562 0.335938 -6.65625 0.390625 -7.5625 C 0.609375 -10.476562 0.769531 -13.453125 0.875 -16.484375 C 1.03125 -22.210938 0.867188 -27.921875 0.390625 -33.609375 C 0.285156 -34.722656 0.207031 -36.019531 0.15625 -37.5 C 0.101562 -38.988281 0.222656 -40.410156 0.515625 -41.765625 C 0.804688 -43.117188 1.390625 -44.179688 2.265625 -44.953125 C 3.140625 -45.722656 4.453125 -45.945312 6.203125 -45.625 C 7.640625 -45.363281 9.046875 -45.03125 10.421875 -44.625 C 11.804688 -44.226562 13.21875 -43.898438 14.65625 -43.640625 C 14.757812 -43.640625 14.875 -43.640625 15 -43.640625 C 15.132812 -43.640625 15.226562 -43.640625 15.28125 -43.640625 C 16.289062 -43.640625 17.300781 -43.835938 18.3125 -44.234375 C 19.320312 -44.628906 20.359375 -45.039062 21.421875 -45.46875 C 22.484375 -45.894531 23.546875 -46.132812 24.609375 -46.1875 C 27.679688 -46.445312 30.597656 -45.914062 33.359375 -44.59375 C 35.753906 -43.476562 37.597656 -42.015625 38.890625 -40.203125 C 40.191406 -38.398438 41.132812 -36.410156 41.71875 -34.234375 C 42.300781 -32.054688 42.671875 -29.800781 42.828125 -27.46875 C 42.992188 -25.132812 43.128906 -22.828125 43.234375 -20.546875 C 43.234375 -20.066406 43.285156 -19.082031 43.390625 -17.59375 C 43.503906 -16.113281 43.570312 -14.40625 43.59375 -12.46875 C 43.625 -10.53125 43.582031 -8.644531 43.46875 -6.8125 C 43.363281 -4.976562 43.113281 -3.445312 42.71875 -2.21875 C 42.320312 -1 41.722656 -0.390625 40.921875 -0.390625 C 40.867188 -0.390625 40.828125 -0.390625 40.796875 -0.390625 C 40.773438 -0.390625 40.738281 -0.390625 40.6875 -0.390625 Z M 40.6875 -0.390625 "/></g></g></g><g fill="#1b1b1b" fill-opacity="1"><g transform="translate(45.300449, 63.850429)"><g><path d="M 3.03125 -50.15625 C 1.863281 -50.90625 1.015625 -51.957031 0.484375 -53.3125 C -0.046875 -54.664062 -0.078125 -56.140625 0.390625 -57.734375 C 1.296875 -60.859375 3.421875 -62.472656 6.765625 -62.578125 L 6.921875 -62.578125 C 8.566406 -62.578125 9.945312 -62.140625 11.0625 -61.265625 C 12.175781 -60.390625 12.921875 -59.179688 13.296875 -57.640625 C 13.773438 -55.734375 13.585938 -53.984375 12.734375 -52.390625 C 11.890625 -50.796875 10.457031 -49.757812 8.4375 -49.28125 C 7.425781 -49.070312 6.457031 -49.046875 5.53125 -49.203125 C 4.601562 -49.367188 3.769531 -49.6875 3.03125 -50.15625 Z M 1.90625 -42.203125 C 2.65625 -42.679688 3.71875 -42.894531 5.09375 -42.84375 C 5.894531 -42.84375 6.769531 -42.867188 7.71875 -42.921875 C 8.675781 -42.972656 9.566406 -42.878906 10.390625 -42.640625 C 11.210938 -42.398438 11.753906 -41.851562 12.015625 -41 C 12.492188 -39.675781 12.65625 -38.070312 12.5 -36.1875 C 12.34375 -34.300781 12.265625 -32.671875 12.265625 -31.296875 C 12.316406 -28.054688 12.34375 -24.84375 12.34375 -21.65625 C 12.34375 -18.46875 12.367188 -15.253906 12.421875 -12.015625 C 12.421875 -11.492188 12.484375 -10.609375 12.609375 -9.359375 C 12.742188 -8.109375 12.828125 -6.765625 12.859375 -5.328125 C 12.890625 -3.898438 12.742188 -2.679688 12.421875 -1.671875 C 12.097656 -0.660156 11.460938 -0.128906 10.515625 -0.078125 C 9.285156 -0.0234375 8.007812 0.0078125 6.6875 0.03125 C 5.363281 0.0625 4.085938 0 2.859375 -0.15625 C 2.015625 -0.257812 1.429688 -0.722656 1.109375 -1.546875 C 0.796875 -2.367188 0.625 -3.363281 0.59375 -4.53125 C 0.570312 -5.707031 0.613281 -6.820312 0.71875 -7.875 C 0.820312 -8.9375 0.875 -9.757812 0.875 -10.34375 C 0.820312 -12.519531 0.78125 -14.707031 0.75 -16.90625 C 0.726562 -19.113281 0.71875 -21.304688 0.71875 -23.484375 C 0.664062 -25.347656 0.640625 -27.207031 0.640625 -29.0625 C 0.640625 -30.914062 0.613281 -32.75 0.5625 -34.5625 C 0.5625 -36.09375 0.53125 -37.578125 0.46875 -39.015625 C 0.414062 -40.453125 0.894531 -41.515625 1.90625 -42.203125 Z M 1.90625 -42.203125 "/></g></g></g><g fill="#1b1b1b" fill-opacity="1"><g transform="translate(59.072826, 63.850429)"><g><path d="M 40.046875 -41.09375 C 41.054688 -39.976562 41.375 -38.78125 41 -37.5 C 40.84375 -36.914062 40.566406 -36.367188 40.171875 -35.859375 C 39.773438 -35.359375 39.363281 -34.867188 38.9375 -34.390625 C 38.664062 -34.128906 38.398438 -33.863281 38.140625 -33.59375 C 37.878906 -33.332031 37.613281 -33.070312 37.34375 -32.8125 C 36.914062 -32.332031 36.34375 -32.171875 35.625 -32.328125 C 34.914062 -32.484375 34.203125 -32.75 33.484375 -33.125 C 32.765625 -33.5 32.140625 -33.765625 31.609375 -33.921875 C 30.441406 -34.347656 29.285156 -34.71875 28.140625 -35.03125 C 27.003906 -35.351562 25.828125 -35.59375 24.609375 -35.75 C 24.335938 -35.800781 24.082031 -35.828125 23.84375 -35.828125 C 23.601562 -35.828125 23.351562 -35.828125 23.09375 -35.828125 C 20.488281 -35.828125 18.164062 -35.046875 16.125 -33.484375 C 14.082031 -31.921875 12.6875 -29.835938 11.9375 -27.234375 C 11.144531 -24.421875 11.222656 -21.660156 12.171875 -18.953125 C 13.128906 -16.242188 14.78125 -14.066406 17.125 -12.421875 C 18.925781 -11.203125 21.257812 -10.59375 24.125 -10.59375 C 27.789062 -10.59375 30.738281 -11.46875 32.96875 -13.21875 C 34.03125 -14.0625 34.914062 -14.601562 35.625 -14.84375 C 36.34375 -15.082031 37.207031 -14.59375 38.21875 -13.375 C 38.75 -12.84375 39.265625 -12.269531 39.765625 -11.65625 C 40.273438 -11.050781 40.769531 -10.429688 41.25 -9.796875 C 41.882812 -8.941406 41.988281 -8.113281 41.5625 -7.3125 C 41.132812 -6.519531 40.414062 -5.78125 39.40625 -5.09375 C 38.40625 -4.40625 37.359375 -3.804688 36.265625 -3.296875 C 35.179688 -2.796875 34.347656 -2.414062 33.765625 -2.15625 C 30.523438 -0.613281 27.125 0.15625 23.5625 0.15625 C 20.0625 0.15625 16.71875 -0.597656 13.53125 -2.109375 C 10.351562 -3.617188 7.515625 -5.753906 5.015625 -8.515625 C 2.890625 -11.015625 1.484375 -13.585938 0.796875 -16.234375 C 0.109375 -18.890625 -0.113281 -21.492188 0.125 -24.046875 C 0.363281 -26.597656 0.800781 -28.90625 1.4375 -30.96875 C 2.8125 -35.21875 5.050781 -38.613281 8.15625 -41.15625 C 11.257812 -43.707031 15.125 -45.273438 19.75 -45.859375 C 21.289062 -46.023438 22.722656 -46.109375 24.046875 -46.109375 C 24.785156 -46.109375 25.875 -46.015625 27.3125 -45.828125 C 28.75 -45.640625 30.285156 -45.34375 31.921875 -44.9375 C 33.566406 -44.539062 35.132812 -44.023438 36.625 -43.390625 C 38.113281 -42.753906 39.253906 -41.988281 40.046875 -41.09375 Z M 40.046875 -41.09375 "/></g></g></g><g fill="#1b1b1b" fill-opacity="1"><g transform="translate(101.029109, 63.850429)"><g><path d="M 42.125 -28.828125 C 42.4375 -26.171875 42.578125 -23.488281 42.546875 -20.78125 C 42.523438 -18.070312 42.515625 -15.578125 42.515625 -13.296875 C 42.515625 -12.765625 42.566406 -11.820312 42.671875 -10.46875 C 42.785156 -9.113281 42.84375 -7.691406 42.84375 -6.203125 C 42.84375 -4.722656 42.722656 -3.4375 42.484375 -2.34375 C 42.242188 -1.257812 41.804688 -0.664062 41.171875 -0.5625 C 40.316406 -0.445312 39.210938 -0.285156 37.859375 -0.078125 C 36.503906 0.128906 35.203125 0.179688 33.953125 0.078125 C 32.710938 -0.0234375 31.773438 -0.476562 31.140625 -1.28125 C 30.390625 -2.226562 30.09375 -3.429688 30.25 -4.890625 C 30.414062 -6.359375 30.472656 -7.617188 30.421875 -8.671875 C 30.421875 -11.648438 30.40625 -14.597656 30.375 -17.515625 C 30.351562 -20.429688 30.367188 -23.351562 30.421875 -26.28125 C 30.421875 -29.039062 29.753906 -31.242188 28.421875 -32.890625 C 27.097656 -34.535156 25.1875 -35.515625 22.6875 -35.828125 C 22.53125 -35.878906 22.367188 -35.90625 22.203125 -35.90625 C 22.046875 -35.90625 21.890625 -35.90625 21.734375 -35.90625 C 20.191406 -35.90625 18.742188 -35.492188 17.390625 -34.671875 C 16.046875 -33.847656 14.929688 -32.757812 14.046875 -31.40625 C 13.171875 -30.050781 12.65625 -28.550781 12.5 -26.90625 C 12.34375 -24.945312 12.25 -23 12.21875 -21.0625 C 12.195312 -19.125 12.210938 -17.195312 12.265625 -15.28125 C 12.265625 -13.164062 12.25 -11.019531 12.21875 -8.84375 C 12.195312 -6.664062 12.1875 -4.488281 12.1875 -2.3125 C 12.1875 -1.507812 11.773438 -0.945312 10.953125 -0.625 C 10.128906 -0.3125 9.117188 -0.15625 7.921875 -0.15625 C 6.722656 -0.15625 5.578125 -0.207031 4.484375 -0.3125 C 3.398438 -0.425781 2.566406 -0.484375 1.984375 -0.484375 C 1.191406 -0.484375 0.648438 -0.863281 0.359375 -1.625 C 0.0664062 -2.394531 -0.0507812 -3.3125 0 -4.375 C 0.0507812 -5.4375 0.144531 -6.457031 0.28125 -7.4375 C 0.414062 -8.425781 0.484375 -9.1875 0.484375 -9.71875 C 0.535156 -11.25 0.570312 -12.785156 0.59375 -14.328125 C 0.625 -15.867188 0.640625 -17.410156 0.640625 -18.953125 C 0.640625 -25.585938 0.570312 -32.222656 0.4375 -38.859375 C 0.300781 -45.492188 0.234375 -52.101562 0.234375 -58.6875 C 0.234375 -59.53125 0.335938 -60.3125 0.546875 -61.03125 C 0.765625 -61.75 1.351562 -62.210938 2.3125 -62.421875 C 3.476562 -62.691406 4.695312 -62.757812 5.96875 -62.625 C 7.25 -62.488281 8.472656 -62.394531 9.640625 -62.34375 C 11.066406 -62.289062 12.019531 -61.785156 12.5 -60.828125 C 12.976562 -59.878906 13.175781 -58.703125 13.09375 -57.296875 C 13.019531 -55.890625 12.847656 -54.507812 12.578125 -53.15625 C 12.316406 -51.800781 12.1875 -50.695312 12.1875 -49.84375 L 12.1875 -45.78125 C 12.1875 -45.195312 12.425781 -44.691406 12.90625 -44.265625 C 13.21875 -43.953125 13.664062 -43.796875 14.25 -43.796875 C 14.300781 -43.796875 14.335938 -43.796875 14.359375 -43.796875 C 14.390625 -43.796875 14.429688 -43.796875 14.484375 -43.796875 C 15.335938 -43.898438 16.148438 -44.015625 16.921875 -44.140625 C 17.691406 -44.273438 18.421875 -44.398438 19.109375 -44.515625 C 20.492188 -44.773438 21.820312 -44.984375 23.09375 -45.140625 C 24.363281 -45.304688 25.582031 -45.390625 26.75 -45.390625 C 30.363281 -45.390625 33.21875 -44.617188 35.3125 -43.078125 C 37.40625 -41.535156 38.96875 -39.503906 40 -36.984375 C 41.039062 -34.460938 41.75 -31.742188 42.125 -28.828125 Z M 42.125 -28.828125 "/></g></g></g><g fill="#1b1b1b" fill-opacity="1"><g transform="translate(144.0204, 63.850429)"><g><path d="M 0.078125 -23.09375 C 0.0234375 -26.0625 0.609375 -29.019531 1.828125 -31.96875 C 3.046875 -34.914062 4.742188 -37.503906 6.921875 -39.734375 C 8.992188 -41.859375 11.359375 -43.476562 14.015625 -44.59375 C 16.671875 -45.707031 19.40625 -46.265625 22.21875 -46.265625 C 22.476562 -46.265625 22.753906 -46.265625 23.046875 -46.265625 C 23.335938 -46.265625 23.617188 -46.265625 23.890625 -46.265625 C 23.890625 -46.265625 23.898438 -46.265625 23.921875 -46.265625 C 23.953125 -46.265625 23.96875 -46.265625 23.96875 -46.265625 C 28.582031 -46.265625 32.65625 -45.304688 36.1875 -43.390625 C 39.71875 -41.484375 42.488281 -38.832031 44.5 -35.4375 C 46.519531 -32.039062 47.53125 -28.113281 47.53125 -23.65625 C 47.53125 -16.695312 45.351562 -11.039062 41 -6.6875 C 38.882812 -4.5625 36.351562 -2.925781 33.40625 -1.78125 C 30.457031 -0.644531 27.257812 -0.078125 23.8125 -0.078125 C 20.519531 -0.078125 17.453125 -0.671875 14.609375 -1.859375 C 11.765625 -3.054688 9.269531 -4.703125 7.125 -6.796875 C 4.976562 -8.898438 3.28125 -11.34375 2.03125 -14.125 C 0.78125 -16.914062 0.128906 -19.90625 0.078125 -23.09375 Z M 23.5625 -36.78125 C 21.707031 -36.78125 19.90625 -36.179688 18.15625 -34.984375 C 16.40625 -33.796875 14.957031 -32.257812 13.8125 -30.375 C 12.675781 -28.488281 12.078125 -26.507812 12.015625 -24.4375 C 11.960938 -22.15625 12.332031 -19.953125 13.125 -17.828125 C 13.925781 -15.710938 15.148438 -13.9375 16.796875 -12.5 C 18.441406 -11.0625 20.488281 -10.210938 22.9375 -9.953125 C 25.644531 -9.691406 27.925781 -10.117188 29.78125 -11.234375 C 31.632812 -12.347656 33.066406 -13.875 34.078125 -15.8125 C 35.085938 -17.75 35.644531 -19.867188 35.75 -22.171875 C 35.851562 -24.484375 35.503906 -26.703125 34.703125 -28.828125 C 33.910156 -30.953125 32.640625 -32.742188 30.890625 -34.203125 C 29.140625 -35.660156 26.910156 -36.519531 24.203125 -36.78125 C 24.097656 -36.78125 23.992188 -36.78125 23.890625 -36.78125 C 23.785156 -36.78125 23.675781 -36.78125 23.5625 -36.78125 Z M 23.5625 -36.78125 "/></g></g></g><g fill="#1b1b1b" fill-opacity="1"><g transform="translate(191.709005, 63.850429)"><g><path d="M 11.859375 -1.109375 C 11.492188 -0.628906 10.960938 -0.363281 10.265625 -0.3125 C 9.578125 -0.257812 8.863281 -0.179688 8.125 -0.078125 C 7.4375 -0.0234375 6.625 0.0234375 5.6875 0.078125 C 4.757812 0.128906 3.882812 0.0351562 3.0625 -0.203125 C 2.238281 -0.441406 1.613281 -0.929688 1.1875 -1.671875 C 0.550781 -2.835938 0.179688 -4.125 0.078125 -5.53125 C -0.0234375 -6.9375 0 -8.367188 0.15625 -9.828125 C 0.3125 -11.285156 0.390625 -12.65625 0.390625 -13.9375 C 0.453125 -16.425781 0.492188 -18.90625 0.515625 -21.375 C 0.546875 -23.84375 0.585938 -26.328125 0.640625 -28.828125 C 0.691406 -33.765625 0.703125 -38.710938 0.671875 -43.671875 C 0.648438 -48.640625 0.585938 -53.59375 0.484375 -58.53125 C 0.484375 -59.90625 0.773438 -60.894531 1.359375 -61.5 C 1.941406 -62.113281 2.707031 -62.472656 3.65625 -62.578125 C 4.613281 -62.691406 5.648438 -62.664062 6.765625 -62.5 C 7.878906 -62.34375 8.941406 -62.210938 9.953125 -62.109375 C 11.066406 -62.003906 11.796875 -61.40625 12.140625 -60.3125 C 12.484375 -59.226562 12.640625 -58.0625 12.609375 -56.8125 C 12.585938 -55.5625 12.550781 -54.566406 12.5 -53.828125 C 12.394531 -51.378906 12.328125 -48.90625 12.296875 -46.40625 C 12.273438 -43.914062 12.265625 -41.425781 12.265625 -38.9375 C 12.265625 -32.882812 12.265625 -26.832031 12.265625 -20.78125 C 12.265625 -14.726562 12.265625 -8.675781 12.265625 -2.625 C 12.265625 -1.988281 12.128906 -1.484375 11.859375 -1.109375 Z M 11.859375 -1.109375 "/></g></g></g><g fill="#1b1b1b" fill-opacity="1"><g transform="translate(204.525992, 63.850429)"><g><path d="M 38.9375 -1.984375 C 38.507812 -1.453125 37.847656 -1.160156 36.953125 -1.109375 C 36.097656 -1.109375 35.269531 -1.28125 34.46875 -1.625 C 33.675781 -1.976562 32.894531 -2.328125 32.125 -2.671875 C 31.351562 -3.015625 30.519531 -3.1875 29.625 -3.1875 C 29.039062 -3.1875 28.457031 -3.144531 27.875 -3.0625 C 27.289062 -2.988281 26.757812 -2.894531 26.28125 -2.78125 L 25.875 -2.703125 C 24.332031 -2.441406 22.832031 -2.097656 21.375 -1.671875 C 19.914062 -1.242188 18.550781 -0.816406 17.28125 -0.390625 C 16.695312 -0.234375 16.097656 -0.101562 15.484375 0 C 14.878906 0.101562 14.253906 0.15625 13.609375 0.15625 C 9.734375 0.15625 6.472656 -1.378906 3.828125 -4.453125 C 0.796875 -7.910156 -0.398438 -12.160156 0.234375 -17.203125 C 0.503906 -19.210938 1.207031 -21.015625 2.34375 -22.609375 C 3.488281 -24.203125 4.9375 -25.425781 6.6875 -26.28125 C 7.59375 -26.695312 8.546875 -27 9.546875 -27.1875 C 10.554688 -27.375 11.59375 -27.546875 12.65625 -27.703125 C 12.925781 -27.703125 13.164062 -27.71875 13.375 -27.75 C 13.59375 -27.78125 13.804688 -27.820312 14.015625 -27.875 L 24.4375 -29.296875 C 25.820312 -29.515625 26.6875 -29.925781 27.03125 -30.53125 C 27.375 -31.144531 27.570312 -31.640625 27.625 -32.015625 C 27.738281 -32.910156 27.460938 -33.726562 26.796875 -34.46875 C 26.128906 -35.21875 25.34375 -35.722656 24.4375 -35.984375 C 22.789062 -36.628906 21.09375 -36.953125 19.34375 -36.953125 L 19.109375 -36.953125 C 17.460938 -36.890625 15.894531 -36.644531 14.40625 -36.21875 C 12.925781 -35.800781 11.492188 -35.300781 10.109375 -34.71875 C 9.679688 -34.5 9.175781 -34.390625 8.59375 -34.390625 C 7.425781 -34.390625 6.269531 -34.773438 5.125 -35.546875 C 3.988281 -36.316406 3.179688 -37.234375 2.703125 -38.296875 C 2.492188 -38.722656 2.398438 -39.082031 2.421875 -39.375 C 2.453125 -39.664062 2.492188 -39.890625 2.546875 -40.046875 C 2.867188 -40.742188 3.492188 -41.367188 4.421875 -41.921875 C 5.347656 -42.484375 6.328125 -42.960938 7.359375 -43.359375 C 8.398438 -43.753906 9.265625 -44.054688 9.953125 -44.265625 C 13.773438 -45.492188 17.625 -46.109375 21.5 -46.109375 C 21.875 -46.109375 22.242188 -46.109375 22.609375 -46.109375 C 22.984375 -46.109375 23.359375 -46.078125 23.734375 -46.015625 C 25.585938 -45.910156 27.640625 -45.550781 29.890625 -44.9375 C 32.148438 -44.332031 34.078125 -43.179688 35.671875 -41.484375 C 37.523438 -39.460938 38.640625 -37.445312 39.015625 -35.4375 C 39.441406 -33.15625 39.585938 -30.78125 39.453125 -28.3125 C 39.316406 -25.84375 39.273438 -23.4375 39.328125 -21.09375 C 39.328125 -18.707031 39.328125 -16.304688 39.328125 -13.890625 C 39.328125 -11.472656 39.359375 -9.097656 39.421875 -6.765625 C 39.421875 -5.972656 39.457031 -5.125 39.53125 -4.21875 C 39.613281 -3.3125 39.414062 -2.566406 38.9375 -1.984375 Z M 27.390625 -15.6875 C 27.816406 -16.53125 27.945312 -17.242188 27.78125 -17.828125 C 27.625 -18.421875 27.46875 -18.820312 27.3125 -19.03125 C 27.101562 -19.351562 26.769531 -19.660156 26.3125 -19.953125 C 25.863281 -20.242188 25.238281 -20.414062 24.4375 -20.46875 L 23.8125 -20.546875 C 23.332031 -20.597656 22.835938 -20.625 22.328125 -20.625 C 21.828125 -20.625 21.285156 -20.625 20.703125 -20.625 C 19.796875 -20.625 18.707031 -20.53125 17.4375 -20.34375 C 16.164062 -20.15625 14.945312 -19.664062 13.78125 -18.875 C 12.976562 -18.238281 12.472656 -17.570312 12.265625 -16.875 C 12.046875 -16.289062 12.019531 -15.550781 12.1875 -14.65625 C 12.550781 -13.007812 13.265625 -11.734375 14.328125 -10.828125 C 15.390625 -9.921875 16.664062 -9.46875 18.15625 -9.46875 C 20.007812 -9.46875 21.835938 -10.078125 23.640625 -11.296875 C 25.453125 -12.523438 26.703125 -13.988281 27.390625 -15.6875 Z M 27.390625 -15.6875 "/></g></g></g><g fill="#1b1b1b" fill-opacity="1"><g transform="translate(244.253033, 63.850429)"><g><path d="M 27.390625 -2.0625 C 24.472656 -0.6875 21.523438 0 18.546875 0 C 16.847656 0 14.976562 -0.238281 12.9375 -0.71875 C 10.894531 -1.195312 8.90625 -1.804688 6.96875 -2.546875 C 5.03125 -3.285156 3.316406 -4.082031 1.828125 -4.9375 C 0.710938 -5.570312 0.128906 -6.222656 0.078125 -6.890625 C 0.0234375 -7.554688 0.265625 -8.242188 0.796875 -8.953125 C 1.328125 -9.671875 1.832031 -10.457031 2.3125 -11.3125 C 2.46875 -11.570312 2.640625 -11.820312 2.828125 -12.0625 C 3.015625 -12.300781 3.210938 -12.5 3.421875 -12.65625 C 4.003906 -13.082031 4.613281 -13.210938 5.25 -13.046875 C 5.882812 -12.890625 6.507812 -12.625 7.125 -12.25 C 7.738281 -11.882812 8.285156 -11.570312 8.765625 -11.3125 C 10.410156 -10.40625 12.210938 -9.738281 14.171875 -9.3125 C 16.140625 -8.882812 18.050781 -8.726562 19.90625 -8.84375 C 21.28125 -8.945312 22.550781 -9.25 23.71875 -9.75 C 24.894531 -10.257812 25.585938 -10.960938 25.796875 -11.859375 C 26.003906 -12.765625 25.367188 -13.828125 23.890625 -15.046875 C 21.921875 -16.585938 19.832031 -17.863281 17.625 -18.875 C 15.425781 -19.882812 13.160156 -20.757812 10.828125 -21.5 C 8.648438 -22.1875 6.894531 -23.21875 5.5625 -24.59375 C 4.238281 -25.976562 3.296875 -27.519531 2.734375 -29.21875 C 2.179688 -30.914062 2.015625 -32.5625 2.234375 -34.15625 C 2.492188 -35.851562 3.15625 -37.472656 4.21875 -39.015625 C 5.28125 -40.554688 6.609375 -41.910156 8.203125 -43.078125 C 9.796875 -44.242188 11.519531 -45.039062 13.375 -45.46875 C 14.4375 -45.726562 15.472656 -45.925781 16.484375 -46.0625 C 17.492188 -46.195312 18.503906 -46.265625 19.515625 -46.265625 C 21.421875 -46.265625 23.300781 -46.035156 25.15625 -45.578125 C 27.019531 -45.128906 28.800781 -44.507812 30.5 -43.71875 C 32.039062 -43.019531 33.140625 -42.363281 33.796875 -41.75 C 34.460938 -41.144531 34.703125 -40.414062 34.515625 -39.5625 C 34.328125 -38.71875 33.703125 -37.523438 32.640625 -35.984375 C 31.847656 -34.816406 30.945312 -34.164062 29.9375 -34.03125 C 28.925781 -33.90625 27.835938 -34.050781 26.671875 -34.46875 C 25.503906 -34.894531 24.320312 -35.414062 23.125 -36.03125 C 21.9375 -36.644531 20.769531 -37.160156 19.625 -37.578125 C 18.488281 -38.003906 17.441406 -38.140625 16.484375 -37.984375 C 15.523438 -37.828125 14.675781 -37.160156 13.9375 -35.984375 C 13.25 -34.816406 13.050781 -33.796875 13.34375 -32.921875 C 13.632812 -32.046875 14.226562 -31.289062 15.125 -30.65625 C 16.03125 -30.019531 17.078125 -29.488281 18.265625 -29.0625 C 19.460938 -28.632812 20.617188 -28.257812 21.734375 -27.9375 C 22.847656 -27.625 23.75 -27.335938 24.4375 -27.078125 C 26.457031 -26.328125 28.421875 -25.421875 30.328125 -24.359375 C 32.242188 -23.296875 33.785156 -21.8125 34.953125 -19.90625 C 36.546875 -17.25 37.113281 -14.765625 36.65625 -12.453125 C 36.207031 -10.148438 35.132812 -8.109375 33.4375 -6.328125 C 31.738281 -4.546875 29.722656 -3.125 27.390625 -2.0625 Z M 27.390625 -2.0625 "/></g></g></g></g></g><g fill="#000000" fill-opacity="1"><g transform="translate(89.643877, 101.186198)"><g><path d="M 2.203125 -7.5625 C 2.796875 -7.5625 3.226562 -7.394531 3.5 -7.0625 C 3.78125 -6.726562 3.921875 -6.269531 3.921875 -5.6875 L 3.921875 -1.875 C 3.921875 -1.289062 3.78125 -0.832031 3.5 -0.5 C 3.226562 -0.164062 2.796875 0 2.203125 0 L 0.4375 0 L 0.4375 -7.5625 Z M 2.1875 -0.765625 C 2.5 -0.765625 2.726562 -0.851562 2.875 -1.03125 C 3.019531 -1.21875 3.09375 -1.488281 3.09375 -1.84375 L 3.09375 -5.734375 C 3.09375 -6.078125 3.019531 -6.335938 2.875 -6.515625 C 2.726562 -6.703125 2.5 -6.796875 2.1875 -6.796875 L 1.28125 -6.796875 L 1.28125 -0.765625 Z M 2.1875 -0.765625 "/></g></g></g><g fill="#000000" fill-opacity="1"><g transform="translate(93.924675, 101.186198)"><g><path d="M 3.125 -4.21875 L 3.125 -3.453125 L 1.28125 -3.453125 L 1.28125 -0.765625 L 3.546875 -0.765625 L 3.546875 0 L 0.4375 0 L 0.4375 -7.5625 L 3.546875 -7.5625 L 3.546875 -6.796875 L 1.28125 -6.796875 L 1.28125 -4.21875 Z M 3.125 -4.21875 "/></g></g></g><g fill="#000000" fill-opacity="1"><g transform="translate(97.816308, 101.186198)"><g><path d="M 1.078125 -7.5625 L 2.296875 -0.984375 L 3.53125 -7.5625 L 4.296875 -7.5625 L 2.890625 0 L 1.640625 0 L 0.21875 -7.5625 Z M 1.078125 -7.5625 "/></g></g></g><g fill="#000000" fill-opacity="1"><g transform="translate(102.334918, 101.186198)"><g/></g></g><g fill="#000000" fill-opacity="1"><g transform="translate(104.010482, 101.186198)"><g><path d="M 2.0625 -7.640625 C 2.644531 -7.640625 3.078125 -7.46875 3.359375 -7.125 C 3.640625 -6.78125 3.78125 -6.316406 3.78125 -5.734375 L 3.78125 -5.0625 L 2.96875 -5.0625 L 2.96875 -5.78125 C 2.96875 -6.125 2.894531 -6.390625 2.75 -6.578125 C 2.613281 -6.773438 2.394531 -6.875 2.09375 -6.875 C 1.78125 -6.875 1.550781 -6.773438 1.40625 -6.578125 C 1.269531 -6.390625 1.203125 -6.125 1.203125 -5.78125 L 1.203125 -1.78125 C 1.203125 -1.4375 1.269531 -1.164062 1.40625 -0.96875 C 1.550781 -0.78125 1.78125 -0.6875 2.09375 -0.6875 C 2.394531 -0.6875 2.613281 -0.78125 2.75 -0.96875 C 2.894531 -1.164062 2.96875 -1.4375 2.96875 -1.78125 L 2.96875 -2.765625 L 3.78125 -2.765625 L 3.78125 -1.828125 C 3.78125 -1.253906 3.640625 -0.789062 3.359375 -0.4375 C 3.078125 -0.09375 2.644531 0.078125 2.0625 0.078125 C 1.488281 0.078125 1.0625 -0.09375 0.78125 -0.4375 C 0.507812 -0.789062 0.375 -1.253906 0.375 -1.828125 L 0.375 -5.734375 C 0.375 -6.023438 0.40625 -6.285156 0.46875 -6.515625 C 0.539062 -6.753906 0.644531 -6.957031 0.78125 -7.125 C 0.925781 -7.289062 1.101562 -7.414062 1.3125 -7.5 C 1.519531 -7.59375 1.769531 -7.640625 2.0625 -7.640625 Z M 2.0625 -7.640625 "/></g></g></g><g fill="#000000" fill-opacity="1"><g transform="translate(108.118312, 101.186198)"><g><path d="M 0.4375 0 L 0.4375 -7.5625 L 1.28125 -7.5625 L 1.28125 -0.765625 L 3.4375 -0.765625 L 3.4375 0 Z M 0.4375 0 "/></g></g></g><g fill="#000000" fill-opacity="1"><g transform="translate(111.761314, 101.186198)"><g><path d="M 1.234375 -1.78125 C 1.234375 -1.4375 1.300781 -1.164062 1.4375 -0.96875 C 1.582031 -0.78125 1.8125 -0.6875 2.125 -0.6875 C 2.425781 -0.6875 2.644531 -0.78125 2.78125 -0.96875 C 2.925781 -1.164062 3 -1.4375 3 -1.78125 L 3 -7.5625 L 3.78125 -7.5625 L 3.78125 -1.828125 C 3.78125 -1.253906 3.644531 -0.789062 3.375 -0.4375 C 3.101562 -0.0820312 2.675781 0.09375 2.09375 0.09375 C 1.507812 0.09375 1.082031 -0.0820312 0.8125 -0.4375 C 0.539062 -0.789062 0.40625 -1.253906 0.40625 -1.828125 L 0.40625 -7.5625 L 1.234375 -7.5625 Z M 1.234375 -1.78125 "/></g></g></g><g fill="#000000" fill-opacity="1"><g transform="translate(115.94482, 101.186198)"><g><path d="M 2.125 -7.5625 C 2.71875 -7.5625 3.140625 -7.421875 3.390625 -7.140625 C 3.648438 -6.867188 3.78125 -6.453125 3.78125 -5.890625 L 3.78125 -5.53125 C 3.78125 -5.132812 3.710938 -4.8125 3.578125 -4.5625 C 3.453125 -4.3125 3.222656 -4.132812 2.890625 -4.03125 C 3.253906 -3.925781 3.515625 -3.734375 3.671875 -3.453125 C 3.828125 -3.171875 3.90625 -2.820312 3.90625 -2.40625 L 3.90625 -1.765625 C 3.90625 -1.203125 3.765625 -0.765625 3.484375 -0.453125 C 3.203125 -0.148438 2.765625 0 2.171875 0 L 0.4375 0 L 0.4375 -7.5625 Z M 1.921875 -4.359375 C 2.265625 -4.359375 2.519531 -4.425781 2.6875 -4.5625 C 2.851562 -4.695312 2.9375 -4.960938 2.9375 -5.359375 L 2.9375 -5.8125 C 2.9375 -6.144531 2.875 -6.390625 2.75 -6.546875 C 2.625 -6.710938 2.410156 -6.796875 2.109375 -6.796875 L 1.28125 -6.796875 L 1.28125 -4.359375 Z M 2.171875 -0.765625 C 2.773438 -0.765625 3.078125 -1.109375 3.078125 -1.796875 L 3.078125 -2.46875 C 3.078125 -2.894531 2.988281 -3.1875 2.8125 -3.34375 C 2.644531 -3.507812 2.378906 -3.59375 2.015625 -3.59375 L 1.28125 -3.59375 L 1.28125 -0.765625 Z M 2.171875 -0.765625 "/></g></g></g><g fill="#000000" fill-opacity="1"><g transform="translate(282.45384, 101.186198)"><g><path d="M 2.015625 -7.640625 C 2.597656 -7.640625 3.023438 -7.46875 3.296875 -7.125 C 3.566406 -6.789062 3.703125 -6.332031 3.703125 -5.75 L 3.703125 -5.546875 L 2.90625 -5.546875 L 2.90625 -5.796875 C 2.90625 -6.140625 2.835938 -6.40625 2.703125 -6.59375 C 2.566406 -6.78125 2.347656 -6.875 2.046875 -6.875 C 1.742188 -6.875 1.519531 -6.78125 1.375 -6.59375 C 1.238281 -6.40625 1.171875 -6.144531 1.171875 -5.8125 C 1.171875 -5.53125 1.234375 -5.28125 1.359375 -5.0625 C 1.492188 -4.851562 1.65625 -4.660156 1.84375 -4.484375 C 2.03125 -4.316406 2.234375 -4.144531 2.453125 -3.96875 C 2.671875 -3.800781 2.875 -3.613281 3.0625 -3.40625 C 3.25 -3.207031 3.40625 -2.976562 3.53125 -2.71875 C 3.65625 -2.46875 3.71875 -2.164062 3.71875 -1.8125 C 3.71875 -1.238281 3.578125 -0.78125 3.296875 -0.4375 C 3.023438 -0.09375 2.597656 0.078125 2.015625 0.078125 C 1.429688 0.078125 1 -0.09375 0.71875 -0.4375 C 0.445312 -0.78125 0.3125 -1.238281 0.3125 -1.8125 L 0.3125 -2.25 L 1.109375 -2.25 L 1.109375 -1.765625 C 1.109375 -1.421875 1.175781 -1.15625 1.3125 -0.96875 C 1.457031 -0.78125 1.679688 -0.6875 1.984375 -0.6875 C 2.285156 -0.6875 2.507812 -0.78125 2.65625 -0.96875 C 2.800781 -1.15625 2.875 -1.421875 2.875 -1.765625 C 2.875 -2.046875 2.8125 -2.289062 2.6875 -2.5 C 2.5625 -2.707031 2.40625 -2.898438 2.21875 -3.078125 C 2.03125 -3.253906 1.828125 -3.425781 1.609375 -3.59375 C 1.390625 -3.757812 1.1875 -3.941406 1 -4.140625 C 0.8125 -4.347656 0.65625 -4.578125 0.53125 -4.828125 C 0.40625 -5.085938 0.34375 -5.394531 0.34375 -5.75 C 0.34375 -6.332031 0.476562 -6.789062 0.75 -7.125 C 1.03125 -7.46875 1.453125 -7.640625 2.015625 -7.640625 Z M 2.015625 -7.640625 "/></g></g></g><g fill="#000000" fill-opacity="1"><g transform="translate(286.475187, 101.186198)"><g><path d="M 1.28125 -7.5625 L 1.28125 0 L 0.4375 0 L 0.4375 -7.5625 Z M 1.28125 -7.5625 "/></g></g></g><g fill="#000000" fill-opacity="1"><g transform="translate(288.183185, 101.186198)"><g><path d="M 1.171875 0 L 0.421875 0 L 0.421875 -7.5625 L 1.484375 -7.5625 L 3.25 -2.09375 L 3.25 -7.5625 L 3.984375 -7.5625 L 3.984375 0 L 3.109375 0 L 1.171875 -6.125 Z M 1.171875 0 "/></g></g></g><g fill="#000000" fill-opacity="1"><g transform="translate(292.604504, 101.186198)"><g><path d="M 2.0625 -7.640625 C 2.644531 -7.640625 3.078125 -7.46875 3.359375 -7.125 C 3.640625 -6.78125 3.78125 -6.316406 3.78125 -5.734375 L 3.78125 -5.0625 L 2.96875 -5.0625 L 2.96875 -5.78125 C 2.96875 -6.125 2.894531 -6.390625 2.75 -6.578125 C 2.613281 -6.773438 2.394531 -6.875 2.09375 -6.875 C 1.78125 -6.875 1.550781 -6.773438 1.40625 -6.578125 C 1.269531 -6.390625 1.203125 -6.125 1.203125 -5.78125 L 1.203125 -1.78125 C 1.203125 -1.4375 1.269531 -1.164062 1.40625 -0.96875 C 1.550781 -0.78125 1.78125 -0.6875 2.09375 -0.6875 C 2.394531 -0.6875 2.613281 -0.78125 2.75 -0.96875 C 2.894531 -1.164062 2.96875 -1.4375 2.96875 -1.78125 L 2.96875 -2.765625 L 3.78125 -2.765625 L 3.78125 -1.828125 C 3.78125 -1.253906 3.640625 -0.789062 3.359375 -0.4375 C 3.078125 -0.09375 2.644531 0.078125 2.0625 0.078125 C 1.488281 0.078125 1.0625 -0.09375 0.78125 -0.4375 C 0.507812 -0.789062 0.375 -1.253906 0.375 -1.828125 L 0.375 -5.734375 C 0.375 -6.023438 0.40625 -6.285156 0.46875 -6.515625 C 0.539062 -6.753906 0.644531 -6.957031 0.78125 -7.125 C 0.925781 -7.289062 1.101562 -7.414062 1.3125 -7.5 C 1.519531 -7.59375 1.769531 -7.640625 2.0625 -7.640625 Z M 2.0625 -7.640625 "/></g></g></g><g fill="#000000" fill-opacity="1"><g transform="translate(296.712335, 101.186198)"><g><path d="M 3.125 -4.21875 L 3.125 -3.453125 L 1.28125 -3.453125 L 1.28125 -0.765625 L 3.546875 -0.765625 L 3.546875 0 L 0.4375 0 L 0.4375 -7.5625 L 3.546875 -7.5625 L 3.546875 -6.796875 L 1.28125 -6.796875 L 1.28125 -4.21875 Z M 3.125 -4.21875 "/></g></g></g><g fill="#000000" fill-opacity="1"><g transform="translate(89.643877, 109.768815)"><g><path d="M 1.8125 -6.46875 C 2.320312 -6.46875 2.6875 -6.335938 2.90625 -6.078125 C 3.132812 -5.828125 3.25 -5.460938 3.25 -4.984375 L 3.25 -4.453125 C 3.25 -4.097656 3.179688 -3.8125 3.046875 -3.59375 C 2.921875 -3.375 2.722656 -3.21875 2.453125 -3.125 C 2.742188 -3.039062 2.953125 -2.882812 3.078125 -2.65625 C 3.203125 -2.425781 3.265625 -2.132812 3.265625 -1.78125 L 3.265625 -0.78125 C 3.265625 -0.632812 3.269531 -0.492188 3.28125 -0.359375 C 3.289062 -0.234375 3.328125 -0.113281 3.390625 0 L 2.65625 0 C 2.613281 -0.09375 2.582031 -0.191406 2.5625 -0.296875 C 2.550781 -0.410156 2.546875 -0.570312 2.546875 -0.78125 L 2.546875 -1.796875 C 2.546875 -2.160156 2.460938 -2.410156 2.296875 -2.546875 C 2.128906 -2.691406 1.894531 -2.765625 1.59375 -2.765625 L 1.09375 -2.765625 L 1.09375 0 L 0.375 0 L 0.375 -6.46875 Z M 1.625 -3.421875 C 1.914062 -3.421875 2.140625 -3.476562 2.296875 -3.59375 C 2.460938 -3.71875 2.546875 -3.953125 2.546875 -4.296875 L 2.546875 -4.921875 C 2.546875 -5.210938 2.488281 -5.429688 2.375 -5.578125 C 2.257812 -5.734375 2.066406 -5.8125 1.796875 -5.8125 L 1.09375 -5.8125 L 1.09375 -3.421875 Z M 1.625 -3.421875 "/></g></g></g><g fill="#000000" fill-opacity="1"><g transform="translate(93.282136, 109.768815)"><g><path d="M 2.671875 -3.59375 L 2.671875 -2.953125 L 1.09375 -2.953125 L 1.09375 -0.65625 L 3.03125 -0.65625 L 3.03125 0 L 0.375 0 L 0.375 -6.46875 L 3.03125 -6.46875 L 3.03125 -5.8125 L 1.09375 -5.8125 L 1.09375 -3.59375 Z M 2.671875 -3.59375 "/></g></g></g><g fill="#000000" fill-opacity="1"><g transform="translate(96.606428, 109.768815)"><g><path d="M 1.765625 -6.53125 C 2.265625 -6.53125 2.628906 -6.378906 2.859375 -6.078125 C 3.097656 -5.785156 3.21875 -5.394531 3.21875 -4.90625 L 3.21875 -4.328125 L 2.546875 -4.328125 L 2.546875 -4.9375 C 2.546875 -5.238281 2.484375 -5.46875 2.359375 -5.625 C 2.234375 -5.789062 2.039062 -5.875 1.78125 -5.875 C 1.519531 -5.875 1.328125 -5.789062 1.203125 -5.625 C 1.085938 -5.46875 1.03125 -5.238281 1.03125 -4.9375 L 1.03125 -1.53125 C 1.03125 -1.226562 1.085938 -0.992188 1.203125 -0.828125 C 1.328125 -0.671875 1.519531 -0.59375 1.78125 -0.59375 C 2.039062 -0.59375 2.234375 -0.671875 2.359375 -0.828125 C 2.484375 -0.992188 2.546875 -1.226562 2.546875 -1.53125 L 2.546875 -2.359375 L 3.21875 -2.359375 L 3.21875 -1.5625 C 3.21875 -1.070312 3.097656 -0.675781 2.859375 -0.375 C 2.628906 -0.0820312 2.265625 0.0625 1.765625 0.0625 C 1.273438 0.0625 0.910156 -0.0820312 0.671875 -0.375 C 0.429688 -0.675781 0.3125 -1.070312 0.3125 -1.5625 L 0.3125 -4.90625 C 0.3125 -5.144531 0.335938 -5.363281 0.390625 -5.5625 C 0.453125 -5.769531 0.539062 -5.941406 0.65625 -6.078125 C 0.78125 -6.222656 0.929688 -6.332031 1.109375 -6.40625 C 1.296875 -6.488281 1.515625 -6.53125 1.765625 -6.53125 Z M 1.765625 -6.53125 "/></g></g></g><g fill="#000000" fill-opacity="1"><g transform="translate(100.115406, 109.768815)"><g><path d="M 1.09375 -6.46875 L 1.09375 0 L 0.375 0 L 0.375 -6.46875 Z M 1.09375 -6.46875 "/></g></g></g><g fill="#000000" fill-opacity="1"><g transform="translate(101.574408, 109.768815)"><g><path d="M 2.578125 -3.453125 L 2.578125 -2.796875 L 1.09375 -2.796875 L 1.09375 0 L 0.375 0 L 0.375 -6.46875 L 2.9375 -6.46875 L 2.9375 -5.8125 L 1.09375 -5.8125 L 1.09375 -3.453125 Z M 2.578125 -3.453125 "/></g></g></g><g fill="#000000" fill-opacity="1"><g transform="translate(104.714024, 109.768815)"><g><path d="M 2.671875 -3.59375 L 2.671875 -2.953125 L 1.09375 -2.953125 L 1.09375 -0.65625 L 3.03125 -0.65625 L 3.03125 0 L 0.375 0 L 0.375 -6.46875 L 3.03125 -6.46875 L 3.03125 -5.8125 L 1.09375 -5.8125 L 1.09375 -3.59375 Z M 2.671875 -3.59375 "/></g></g></g><g fill="#000000" fill-opacity="1"><g transform="translate(108.038315, 109.768815)"><g/></g></g><g fill="#000000" fill-opacity="1"><g transform="translate(109.469614, 109.768815)"><g><path d="M 0.34375 -3.5625 L 2.109375 -3.5625 L 2.109375 -2.90625 L 0.34375 -2.90625 Z M 0.34375 -3.5625 "/></g></g></g><g fill="#000000" fill-opacity="1"><g transform="translate(111.916667, 109.768815)"><g/></g></g><g fill="#000000" fill-opacity="1"><g transform="translate(113.347966, 109.768815)"><g><path d="M 1.78125 -6.46875 C 2.289062 -6.46875 2.660156 -6.328125 2.890625 -6.046875 C 3.117188 -5.765625 3.234375 -5.378906 3.234375 -4.890625 L 3.234375 -4.109375 C 3.234375 -3.585938 3.109375 -3.195312 2.859375 -2.9375 C 2.617188 -2.675781 2.242188 -2.546875 1.734375 -2.546875 L 1.09375 -2.546875 L 1.09375 0 L 0.375 0 L 0.375 -6.46875 Z M 1.734375 -3.1875 C 2.003906 -3.1875 2.203125 -3.253906 2.328125 -3.390625 C 2.453125 -3.523438 2.515625 -3.75 2.515625 -4.0625 L 2.515625 -4.921875 C 2.515625 -5.210938 2.457031 -5.429688 2.34375 -5.578125 C 2.226562 -5.734375 2.039062 -5.8125 1.78125 -5.8125 L 1.09375 -5.8125 L 1.09375 -3.1875 Z M 1.734375 -3.1875 "/></g></g></g><g fill="#000000" fill-opacity="1"><g transform="translate(116.801538, 109.768815)"><g><path d="M 2.671875 -3.59375 L 2.671875 -2.953125 L 1.09375 -2.953125 L 1.09375 -0.65625 L 3.03125 -0.65625 L 3.03125 0 L 0.375 0 L 0.375 -6.46875 L 3.03125 -6.46875 L 3.03125 -5.8125 L 1.09375 -5.8125 L 1.09375 -3.59375 Z M 2.671875 -3.59375 "/></g></g></g><g fill="#000000" fill-opacity="1"><g transform="translate(286.284378, 108.595838)"><g><path d="M 1.8125 -6.53125 C 2.320312 -6.53125 2.691406 -6.378906 2.921875 -6.078125 C 3.160156 -5.785156 3.28125 -5.390625 3.28125 -4.890625 C 3.28125 -4.566406 3.222656 -4.273438 3.109375 -4.015625 C 3.003906 -3.753906 2.867188 -3.507812 2.703125 -3.28125 C 2.546875 -3.0625 2.375 -2.851562 2.1875 -2.65625 C 2 -2.457031 1.820312 -2.257812 1.65625 -2.0625 C 1.488281 -1.863281 1.347656 -1.65625 1.234375 -1.4375 C 1.128906 -1.226562 1.078125 -1 1.078125 -0.75 L 1.078125 -0.65625 L 3.203125 -0.65625 L 3.203125 0 L 0.375 0 L 0.375 -0.546875 C 0.375 -0.898438 0.425781 -1.207031 0.53125 -1.46875 C 0.632812 -1.726562 0.769531 -1.96875 0.9375 -2.1875 C 1.101562 -2.40625 1.28125 -2.613281 1.46875 -2.8125 C 1.65625 -3.007812 1.828125 -3.207031 1.984375 -3.40625 C 2.148438 -3.613281 2.285156 -3.832031 2.390625 -4.0625 C 2.503906 -4.289062 2.5625 -4.554688 2.5625 -4.859375 C 2.5625 -5.191406 2.5 -5.441406 2.375 -5.609375 C 2.257812 -5.785156 2.066406 -5.875 1.796875 -5.875 C 1.535156 -5.875 1.34375 -5.785156 1.21875 -5.609375 C 1.101562 -5.441406 1.046875 -5.21875 1.046875 -4.9375 L 1.046875 -4.359375 L 0.375 -4.359375 L 0.375 -4.890625 C 0.375 -5.390625 0.488281 -5.785156 0.71875 -6.078125 C 0.957031 -6.378906 1.320312 -6.53125 1.8125 -6.53125 Z M 1.8125 -6.53125 "/></g></g></g><g fill="#000000" fill-opacity="1"><g transform="translate(289.857997, 108.595838)"><g><path d="M 0.3125 -4.90625 C 0.3125 -5.40625 0.429688 -5.800781 0.671875 -6.09375 C 0.921875 -6.382812 1.296875 -6.53125 1.796875 -6.53125 C 2.296875 -6.53125 2.664062 -6.382812 2.90625 -6.09375 C 3.15625 -5.800781 3.28125 -5.40625 3.28125 -4.90625 L 3.28125 -1.5625 C 3.28125 -1.070312 3.15625 -0.675781 2.90625 -0.375 C 2.664062 -0.0820312 2.296875 0.0625 1.796875 0.0625 C 1.296875 0.0625 0.921875 -0.0820312 0.671875 -0.375 C 0.429688 -0.675781 0.3125 -1.070312 0.3125 -1.5625 Z M 1.03125 -1.53125 C 1.03125 -1.226562 1.09375 -0.992188 1.21875 -0.828125 C 1.34375 -0.671875 1.535156 -0.59375 1.796875 -0.59375 C 2.054688 -0.59375 2.25 -0.671875 2.375 -0.828125 C 2.5 -0.992188 2.5625 -1.226562 2.5625 -1.53125 L 2.5625 -4.9375 C 2.5625 -5.238281 2.5 -5.46875 2.375 -5.625 C 2.25 -5.789062 2.054688 -5.875 1.796875 -5.875 C 1.535156 -5.875 1.34375 -5.789062 1.21875 -5.625 C 1.09375 -5.46875 1.03125 -5.238281 1.03125 -4.9375 Z M 1.03125 -1.53125 "/></g></g></g><g fill="#000000" fill-opacity="1"><g transform="translate(293.450084, 108.595838)"><g><path d="M 1.8125 -6.53125 C 2.320312 -6.53125 2.691406 -6.378906 2.921875 -6.078125 C 3.160156 -5.785156 3.28125 -5.390625 3.28125 -4.890625 C 3.28125 -4.566406 3.222656 -4.273438 3.109375 -4.015625 C 3.003906 -3.753906 2.867188 -3.507812 2.703125 -3.28125 C 2.546875 -3.0625 2.375 -2.851562 2.1875 -2.65625 C 2 -2.457031 1.820312 -2.257812 1.65625 -2.0625 C 1.488281 -1.863281 1.347656 -1.65625 1.234375 -1.4375 C 1.128906 -1.226562 1.078125 -1 1.078125 -0.75 L 1.078125 -0.65625 L 3.203125 -0.65625 L 3.203125 0 L 0.375 0 L 0.375 -0.546875 C 0.375 -0.898438 0.425781 -1.207031 0.53125 -1.46875 C 0.632812 -1.726562 0.769531 -1.96875 0.9375 -2.1875 C 1.101562 -2.40625 1.28125 -2.613281 1.46875 -2.8125 C 1.65625 -3.007812 1.828125 -3.207031 1.984375 -3.40625 C 2.148438 -3.613281 2.285156 -3.832031 2.390625 -4.0625 C 2.503906 -4.289062 2.5625 -4.554688 2.5625 -4.859375 C 2.5625 -5.191406 2.5 -5.441406 2.375 -5.609375 C 2.257812 -5.785156 2.066406 -5.875 1.796875 -5.875 C 1.535156 -5.875 1.34375 -5.785156 1.21875 -5.609375 C 1.101562 -5.441406 1.046875 -5.21875 1.046875 -4.9375 L 1.046875 -4.359375 L 0.375 -4.359375 L 0.375 -4.890625 C 0.375 -5.390625 0.488281 -5.785156 0.71875 -6.078125 C 0.957031 -6.378906 1.320312 -6.53125 1.8125 -6.53125 Z M 1.8125 -6.53125 "/></g></g></g><g fill="#000000" fill-opacity="1"><g transform="translate(297.023703, 108.595838)"><g><path d="M 1.09375 -3.828125 C 1.300781 -4.191406 1.617188 -4.375 2.046875 -4.375 C 2.460938 -4.375 2.765625 -4.234375 2.953125 -3.953125 C 3.148438 -3.671875 3.25 -3.296875 3.25 -2.828125 L 3.25 -1.5625 C 3.25 -1.070312 3.128906 -0.675781 2.890625 -0.375 C 2.648438 -0.0820312 2.285156 0.0625 1.796875 0.0625 C 1.296875 0.0625 0.925781 -0.0820312 0.6875 -0.375 C 0.457031 -0.675781 0.34375 -1.070312 0.34375 -1.5625 L 0.34375 -2 L 1.015625 -2 L 1.015625 -1.53125 C 1.015625 -1.226562 1.078125 -0.992188 1.203125 -0.828125 C 1.328125 -0.671875 1.515625 -0.59375 1.765625 -0.59375 C 2.023438 -0.59375 2.21875 -0.671875 2.34375 -0.828125 C 2.46875 -0.992188 2.53125 -1.226562 2.53125 -1.53125 L 2.53125 -2.78125 C 2.53125 -3.070312 2.46875 -3.300781 2.34375 -3.46875 C 2.21875 -3.632812 2.023438 -3.71875 1.765625 -3.71875 C 1.578125 -3.71875 1.414062 -3.660156 1.28125 -3.546875 C 1.15625 -3.429688 1.078125 -3.253906 1.046875 -3.015625 L 1.046875 -2.875 L 0.375 -2.875 L 0.546875 -6.46875 L 3.09375 -6.46875 L 3.09375 -5.8125 L 1.1875 -5.8125 Z M 1.09375 -3.828125 "/></g></g></g></svg>